<svg xmlns="http://www.w3.org/2000/svg" width="40.385" height="35" viewBox="0 0 40.385 35">
  <g id="noun_Email_3656307" transform="translate(-1 -3)">
    <g id="Group_1" data-name="Group 1" transform="translate(1 3)">
      <path id="Path_1" data-name="Path 1" d="M34.654,3H7.731A6.731,6.731,0,0,0,1,9.731V31.269A6.731,6.731,0,0,0,7.731,38H34.654a6.731,6.731,0,0,0,6.731-6.731V9.731A6.731,6.731,0,0,0,34.654,3Zm4.038,28.269a4.038,4.038,0,0,1-4.038,4.038H7.731a4.038,4.038,0,0,1-4.038-4.038V9.731A4.038,4.038,0,0,1,7.731,5.692H34.654a4.038,4.038,0,0,1,4.038,4.038Z" transform="translate(-1 -3)" fill="#ebebeb"/>
      <path id="Path_2" data-name="Path 2" d="M37.6,9.11a1.769,1.769,0,0,0-1.921.44l-2.723,3.79A4.749,4.749,0,0,1,29.112,15H13.259a4.749,4.749,0,0,1-3.841-1.66L6.695,9.55A1.808,1.808,0,0,0,4.82,9.173c-.67.236-.965.793-.676,1.277l2.709,3.79A7.923,7.923,0,0,0,13.259,17H29.112a7.923,7.923,0,0,0,6.407-2.76l2.709-3.79C38.582,9.958,38.3,9.36,37.6,9.11Z" transform="translate(-1 0.001)" fill="#ebebeb"/>
    </g>
  </g>
</svg>
