<?xml version="1.0" encoding="UTF-8" standalone="no"?>
<!-- Created with Inkscape (http://www.inkscape.org/) -->

<svg
   xmlns:dc="http://purl.org/dc/elements/1.1/"
   xmlns:cc="http://creativecommons.org/ns#"
   xmlns:rdf="http://www.w3.org/1999/02/22-rdf-syntax-ns#"
   xmlns:svg="http://www.w3.org/2000/svg"
   xmlns="http://www.w3.org/2000/svg"
   xmlns:sodipodi="http://sodipodi.sourceforge.net/DTD/sodipodi-0.dtd"
   xmlns:inkscape="http://www.inkscape.org/namespaces/inkscape"
   version="1.1"
   id="svg2"
   xml:space="preserve"
   width="128"
   height="128"
   viewBox="0 0 128 128"
   sodipodi:docname="logo.svg"
   inkscape:version="0.92.4 (5da689c313, 2019-01-14)"
   inkscape:export-filename="/home/rjw57/projects/raven/docs/docs/images/favicon.png"
   inkscape:export-xdpi="95.250008"
   inkscape:export-ydpi="95.250008"><metadata
     id="metadata8"><rdf:RDF><cc:Work
         rdf:about=""><dc:format>image/svg+xml</dc:format><dc:type
           rdf:resource="http://purl.org/dc/dcmitype/StillImage" /><dc:title /></cc:Work></rdf:RDF></metadata><defs
     id="defs6" /><sodipodi:namedview
     pagecolor="#ffffff"
     bordercolor="#666666"
     borderopacity="1"
     objecttolerance="10"
     gridtolerance="10"
     guidetolerance="10"
     inkscape:pageopacity="0"
     inkscape:pageshadow="2"
     inkscape:window-width="1920"
     inkscape:window-height="1016"
     id="namedview4"
     showgrid="false"
     fit-margin-top="0"
     fit-margin-left="0"
     fit-margin-right="0"
     fit-margin-bottom="0"
     inkscape:zoom="4.7565944"
     inkscape:cx="65.783351"
     inkscape:cy="62.803417"
     inkscape:window-x="1920"
     inkscape:window-y="27"
     inkscape:window-maximized="1"
     inkscape:current-layer="g10"
     borderlayer="true"
     inkscape:pagecheckerboard="true" /><g
     id="g10"
     inkscape:groupmode="layer"
     inkscape:label="ravenlogo.ai"
     transform="matrix(1.3333333,0,0,-1.3333333,-166.33333,489.32532)"><g
       id="g854"><path
         id="path4857"
         transform="matrix(0.75000002,0,0,-0.75000002,124.75,366.994)"
         d="M 80.113281 64.599609 C 78.902818 65.714846 77.702653 66.831824 76.533203 67.955078 C 77.550283 72.676545 82.087287 77.0023 86.248047 79.1875 C 92.301513 79.382927 99.147501 80.460694 101.80469 86.935547 C 96.862581 87.366254 92.039887 86.223825 87.119141 86.076172 C 86.696821 88.356558 79.316532 86.245734 75.947266 86.306641 C 72.638132 87.154321 69.209991 87.293594 67.396484 85.804688 C 63.135311 85.403394 59.209783 87.327669 54.970703 87.169922 L 55.019531 85.835938 L 55.025391 85.626953 C 50.956284 84.680273 53.506218 78.020217 57.767578 78.900391 C 60.514685 78.169937 67.400562 80.588707 65.359375 75.367188 C 65.825197 71.83239 63.092725 70.499934 60.642578 68.730469 L 33.824219 83.359375 L 74.164062 105.36328 L 107.16797 87.355469 L 107.16797 112.69727 L 114.50195 112.69727 L 114.50195 83.359375 L 80.113281 64.599609 z M 72.972656 76.382812 C 71.969039 76.480375 71.232706 77.592331 74.189453 78.548828 C 74.695121 76.844177 73.753248 76.306931 72.972656 76.382812 z M 48.492188 98.6875 L 48.492188 113.35742 L 74.164062 127.36523 L 99.833984 113.35742 L 99.833984 98.6875 L 74.164062 112.69727 L 48.492188 98.6875 z "
         style="fill:#ffffff;stroke-width:3.66721654" /><path
         inkscape:connector-curvature="0"
         id="path4873"
         style="fill:#ffffff;fill-opacity:1;fill-rule:nonzero;stroke:none;stroke-width:0.02738075"
         d="m 196.93307,303.7924 c -0.54764,0.8214 -2.42895,1.26963 -4.10713,1.43749 -1.87091,0.36498 -2.32734,-0.15968 -5.24806,0.84414 -1.02349,0.35209 -6.16095,5.93313 -6.98207,7.57543 -0.54763,1.09522 -0.83951,3.4623 0.50215,4.4721 4.06138,3.05759 5.7954,4.92853 9.81133,8.85329 2.5768,2.05081 4.78972,3.64054 6.57138,6.18338 1.9706,2.81229 3.23396,6.97006 4.92854,9.85708 1.8482,3.14878 2.46289,5.35649 2.8977,6.52731 1.1867,3.1945 0.75105,4.36501 1.91666,5.38495 0.73024,0.63879 3.19451,2.09929 4.47236,2.82926 1.67899,0.95969 6.93637,1.00405 8.39659,1.27786 -0.72997,2.09927 -4.28948,3.19451 -5.65852,3.74212 -2.51956,1.00763 -5.38495,1.27757 -7.11899,1.27757 -1.43748,0.95834 -1.43748,0.70591 -3.62795,1.80113 -3.28568,1.09523 -7.18115,-1.10839 -9.67468,-3.10333 -2.73809,-2.19047 -2.87583,-6.13164 -5.84115,-7.30136 -9.94825,-3.92476 -12.32134,-6.29758 -19.16654,-11.68254 -3.08033,-2.4232 -8.45653,-3.19012 -11.13492,-4.92855 -10.96789,-7.11981 -17.34106,-10.76966 -29.02358,-14.05535 -1.08375,-0.66178 -1.39178,-1.41475 -3.65069,-2.73806 3.83331,-0.38801 10.43892,1.66557 11.95636,1.73402 -1.20941,-0.85566 -8.94449,-4.51784 -10.49613,-5.9326 1.58589,0.11418 8.0888,2.74957 10.22232,3.0119 -1.85972,-1.49444 -9.59476,-5.19086 -10.90684,-6.4345 0.73024,-0.39922 1.55165,-0.36498 2.32735,-0.59306 -0.36498,-0.63907 -1.15216,-0.86714 -1.4602,-1.59738 3.19449,0.13684 5.4419,1.3463 6.20637,1.32359 -0.35375,-0.66181 -1.10672,-1.34632 -1.41476,-2.09928 5.91398,2.15047 11.36302,5.33925 17.20416,7.57542 2.74792,0.64508 4.83735,0.45616 7.75805,1.27759 2.878,0.80964 6.38876,2.0081 9.40063,1.00405 2.50945,-0.83648 4.72374,-3.60606 7.02782,-5.84114 0.54761,-0.18263 1.17026,-0.25766 1.73402,-0.82142 1.10837,-0.88658 1.18368,-7.30681 1.16369,-7.37007 -0.75298,-2.39582 -10.26011,-0.52491 -9.37024,-2.30465 1.02678,0.27382 2.55572,0.68452 3.01188,-0.2738 0.23547,-0.49451 -1.59711,-0.31953 -1.50594,-0.95833 1.09523,0 1.59739,0.5019 3.74214,0.77569 2.14472,0.0458 3.66326,0.21795 5.43041,0.0458 1.87119,-0.18263 6.98209,-0.34226 9.17256,-0.82142 h 0.13683 c -0.54761,0.82142 -2.42894,1.26965 -4.1071,1.43749 -1.87148,0.36499 -2.15241,-0.47916 -4.86775,1.0725 -0.42852,0.24479 0.14457,6.23652 -0.5249,7.57543 0,0.54762 0.73026,0.365 1.27787,0.365 1.10837,-0.8866 5.91096,-6.9194 5.93259,-6.98209 0.63878,-1.87095 -8.19152,-0.41073 -7.30164,-2.19048 1.09524,0 2.55546,0.68453 3.0119,-0.27381 0.23547,-0.49449 -1.59712,-0.31952 -1.50595,-0.95831 1.09522,0 2.82925,0.50189 4.97425,0.77569 2.14475,0.0457 2.43115,0.21796 4.1983,0.0457 1.87093,-0.18264 6.98209,-0.34225 9.17256,-0.82142" /></g></g></svg>